<mxfile host="app.diagrams.net" modified="2023-10-07T02:26:20.382Z" agent="Mozilla/5.0 (X11; Linux x86_64) AppleWebKit/537.36 (KHTML, like Gecko) Chrome/116.0.0.0 Safari/537.36" version="22.0.4" etag="o-aVt_z6AQ1cE3sLykiI" type="github">
  <diagram name="Page-1" id="LOg0QtqYsZ2hMxtPgfMv">
    <mxGraphModel>
      <root>
        <mxCell id="0" />
        <mxCell id="1" parent="0" />
      </root>
    </mxGraphModel>
  </diagram>
</mxfile>
